<svg width="98" height="98" viewBox="0 0 98 98" fill="none" xmlns="http://www.w3.org/2000/svg">
<path d="M70.5245 0H27.3917C12.2637 0 0 12.2653 0 27.3953V70.5336C0 85.6636 12.2637 97.9289 27.3917 97.9289H70.5245C85.6525 97.9289 97.9162 85.6636 97.9162 70.5336V27.3953C97.9162 12.2653 85.6525 0 70.5245 0Z" fill="#2967B0"/>
<path d="M52.0077 43.6589C52.6834 42.901 53.2403 42.1248 53.9434 41.4673C56.0799 39.4492 58.6182 38.4356 61.5765 38.4538C63.2018 38.4721 64.8088 38.5817 66.3701 39.0383C69.9493 40.0701 72.0402 42.5448 73.0263 46.0423C73.775 48.6723 73.9119 51.3661 73.9119 54.0691C73.9211 59.7765 73.8937 65.4747 73.9119 71.182C73.9119 71.7117 73.7659 71.8578 73.2363 71.8486C70.2962 71.8213 67.3562 71.8213 64.4253 71.8486C63.9048 71.8486 63.7953 71.6934 63.7953 71.2003C63.8135 65.776 63.8135 60.3426 63.7953 54.9184C63.7953 53.5577 63.704 52.1971 63.3205 50.873C62.6174 48.4348 60.8735 47.1929 58.3261 47.3299C54.8382 47.5125 53.0303 49.2384 52.5829 52.7815C52.4734 53.6308 52.4277 54.4709 52.4277 55.3293C52.4277 60.6075 52.4277 65.8856 52.446 71.1638C52.446 71.6934 52.3181 71.8486 51.7794 71.8395C48.8211 71.8121 45.8628 71.8121 42.9045 71.8395C42.4297 71.8395 42.2928 71.7117 42.2928 71.2368C42.3019 60.7901 42.3019 50.3342 42.2928 39.8875C42.2928 39.367 42.4571 39.2483 42.9502 39.2574C45.7624 39.2757 48.5746 39.2848 51.3777 39.2574C51.8981 39.2574 52.026 39.4218 52.0168 39.9058C51.9894 41.1568 52.0077 42.4079 52.0077 43.6498V43.6589Z" fill="#FDFDFD"/>
<path d="M35.9105 55.6032C35.9105 60.7718 35.9105 65.9404 35.9196 71.109C35.9196 71.6843 35.7827 71.8578 35.1801 71.8486C32.24 71.8121 29.3091 71.8212 26.3691 71.8486C25.8943 71.8486 25.7573 71.7299 25.7573 71.2459C25.7756 60.7809 25.7665 50.316 25.7573 39.8418C25.7573 39.4127 25.8578 39.2574 26.3234 39.2574C29.3 39.2757 32.2857 39.2848 35.2622 39.2574C35.8375 39.2574 35.9105 39.4766 35.9105 39.9606C35.8923 45.1748 35.9105 50.389 35.9105 55.5941V55.6032Z" fill="#FDFDFD"/>
<path d="M36.7231 28.8929C36.7231 32.1346 34.0935 34.7829 30.8522 34.7829C27.6565 34.7829 24.9995 32.1346 24.9903 28.9385C24.9812 25.7059 27.6382 23.0486 30.8704 23.0486C34.0753 23.0486 36.7231 25.6876 36.7231 28.8837V28.8929Z" fill="#FDFDFD"/>
</svg>
