<svg width="500" height="500" viewBox="0 0 500 500" fill="none" xmlns="http://www.w3.org/2000/svg">
<path d="M260 195C263.272 196.368 264.753 197.67 266.578 200.695C267.016 201.411 267.455 202.126 267.906 202.863C268.35 203.61 268.793 204.356 269.25 205.125C269.709 205.879 270.168 206.633 270.641 207.41C271.769 209.268 272.886 211.133 274 213C278.012 207.168 281.664 201.244 285 195C289.37 196.668 293.566 198.604 297.75 200.688C298.777 201.158 298.777 201.158 299.824 201.639C303.178 203.335 304.815 204.592 306.379 208.039C305.787 214.225 302.538 218.563 299.188 223.688C297.888 225.733 296.59 227.778 295.293 229.824C294.419 231.171 294.419 231.171 293.528 232.546C293.024 233.356 292.52 234.166 292 235C291.535 235.633 291.069 236.266 290.59 236.918C289.716 239.186 289.716 239.186 291.226 242.005C291.891 243.175 292.574 244.336 293.27 245.488C293.625 246.11 293.981 246.731 294.347 247.371C295.487 249.361 296.648 251.337 297.813 253.312C298.965 255.278 300.112 257.245 301.246 259.221C301.951 260.45 302.667 261.673 303.396 262.888C305.712 266.908 306.594 270.395 307 275C294.515 280.371 294.515 280.371 288 282C283.773 275.794 279.809 269.47 276 263C272.196 269.261 268.511 275.569 265 282C245.957 277.525 245.957 277.525 243.614 273.792C242.755 269.887 243.92 268.2 245.797 264.711C246.26 263.833 246.26 263.833 246.733 262.938C247.722 261.074 248.735 259.225 249.75 257.375C250.418 256.123 251.085 254.871 251.75 253.617C256.403 244.896 256.403 244.896 259 241C258.848 235.439 256.281 231.882 253.188 227.5C252.749 226.862 252.31 226.224 251.857 225.566C251.424 224.936 250.99 224.306 250.543 223.656C250.117 223.035 249.691 222.414 249.251 221.773C248.11 220.156 246.896 218.59 245.676 217.031C243.86 213.747 243.196 211.631 243.395 207.914C244.618 204.046 248.082 202.476 251.438 200.562C252.145 200.13 252.852 199.698 253.58 199.252C255.378 198.153 257.188 197.075 259 196C259.33 195.67 259.66 195.34 260 195Z" fill="#1C1C1C"/>
<path d="M187 195C224.143 195 224.143 195 238 196C238.029 199.125 238.047 202.25 238.062 205.375C238.071 206.264 238.079 207.154 238.088 208.07C238.091 208.921 238.094 209.772 238.098 210.648C238.103 211.434 238.108 212.219 238.114 213.029C238 215 238 215 237 217C227.926 217.112 219.037 216.942 210 216C210 219.3 210 222.6 210 226C215.94 226.33 221.88 226.66 228 227C228 233.6 228 240.2 228 247C222.06 246.67 216.12 246.34 210 246C210 250.62 210 255.24 210 260C211.632 259.983 211.632 259.983 213.297 259.965C221.934 259.902 230.394 260.129 239 261C239.33 267.6 239.66 274.2 240 281C222.51 281 205.02 281 187 281C187 252.62 187 224.24 187 195Z" fill="#1C1C1C"/>
<path d="M333 194C334.507 196.788 336.004 199.581 337.5 202.375C337.929 203.169 338.359 203.963 338.801 204.781C339.41 205.922 339.41 205.922 340.031 207.086C340.408 207.788 340.785 208.489 341.174 209.212C342 211 342 211 342 213C342.66 213 343.32 213 344 213C344.115 212.314 344.229 211.628 344.348 210.922C345.099 207.557 346.21 204.471 347.438 201.25C347.869 200.1 348.301 198.95 348.746 197.766C350 195 350 195 352 194C353.955 194.513 353.955 194.513 356.316 195.398C357.163 195.713 358.009 196.028 358.881 196.352C359.766 196.689 360.651 197.027 361.562 197.375C362.896 197.87 362.896 197.87 364.256 198.375C370.85 200.85 370.85 200.85 372 202C372.485 208.406 371.284 212.83 368.738 218.66C368.396 219.476 368.053 220.292 367.7 221.132C366.584 223.782 365.449 226.422 364.312 229.062C363.538 230.89 362.766 232.718 361.994 234.547C360.431 238.246 358.861 241.943 357.284 245.637C355.161 250.614 353.063 255.601 350.977 260.594C350.671 261.324 350.366 262.054 350.052 262.807C349.463 264.215 348.875 265.623 348.287 267.03C346.199 272.024 344.099 277.012 342 282C336.688 281.499 331.61 280.805 326.438 279.438C325.405 279.168 324.372 278.899 323.309 278.621C322.547 278.416 321.785 278.211 321 278C318.576 269.662 322.863 262.258 325.84 254.516C326.254 253.397 326.667 252.278 327.094 251.125C327.677 249.613 327.677 249.613 328.271 248.07C329.928 241.088 327.143 235.492 324.184 229.328C323.808 228.524 323.432 227.72 323.044 226.891C321.851 224.34 320.645 221.795 319.438 219.25C318.227 216.691 317.02 214.13 315.82 211.566C315.075 209.975 314.324 208.387 313.566 206.802C311 201.336 311 201.336 311 198C314.291 197.33 317.583 196.665 320.875 196C321.812 195.809 322.749 195.618 323.715 195.422C324.611 195.241 325.507 195.061 326.43 194.875C327.671 194.624 327.671 194.624 328.937 194.367C331 194 331 194 333 194Z" fill="#1C1C1C"/>
<path d="M134.23 194.77C136.189 194.791 136.189 194.791 138.187 194.812C140.127 194.822 140.127 194.822 142.105 194.832C145.804 194.992 149.343 195.45 153 196C153.075 210.237 152.842 224.455 152.5 238.688C152.452 240.769 152.403 242.85 152.355 244.932C152.24 249.954 152.12 254.977 152 260C161.57 260 171.14 260 181 260C183.516 275.097 183.516 275.097 184 281C183 282 183 282 180.792 282.12C179.817 282.118 178.842 282.116 177.838 282.114C176.737 282.113 175.636 282.113 174.501 282.113C173.303 282.108 172.105 282.103 170.871 282.098C169.652 282.096 168.432 282.095 167.176 282.093C163.263 282.088 159.35 282.075 155.437 282.062C152.792 282.057 150.147 282.053 147.502 282.049C141.001 282.038 134.501 282.021 128 282C127.886 261.592 127.937 241.188 128.318 220.782C128.356 218.718 128.391 216.653 128.422 214.589C128.466 211.688 128.524 208.787 128.586 205.887C128.597 205.015 128.609 204.142 128.621 203.244C128.823 195.155 128.823 195.155 134.23 194.77Z" fill="#1C1C1C"/>
<path d="M323 262C323.66 262.33 324.32 262.66 325 263C324.794 263.949 324.587 264.897 324.375 265.875C324.251 266.906 324.127 267.938 324 269C324.66 269.66 325.32 270.32 326 271C325.67 271.66 325.34 272.32 325 273C325.66 273.33 326.32 273.66 327 274C327.33 274.99 327.66 275.98 328 277C330.504 278.219 330.504 278.219 333 279C328.479 280.456 325.484 279.27 321 278C319.563 271.861 320.674 267.796 323 262Z" fill="#161616"/>
<path d="M225 260C231.93 260.495 231.93 260.495 239 261C239.33 267.6 239.66 274.2 240 281C239.01 280.67 238.02 280.34 237 280C237.33 279.67 237.66 279.34 238 279C238.073 276.303 238.092 273.633 238.062 270.938C238.058 270.179 238.053 269.42 238.049 268.639C238.037 266.759 238.019 264.88 238 263C234.04 263 230.08 263 226 263C225.67 262.01 225.34 261.02 225 260Z" fill="#0E0E0E"/>
<path d="M264 199C266.918 201.627 268.945 204.67 271 208C271 208.66 271 209.32 271 210C268 209 268 209 266.832 207.223C266.496 206.51 266.159 205.797 265.812 205.062C265.468 204.352 265.124 203.642 264.77 202.91C264 201 264 201 264 199Z" fill="#121212"/>
<path d="M225 260C229.29 260.33 233.58 260.66 238 261C238 261.66 238 262.32 238 263C234.04 263 230.08 263 226 263C225.67 262.01 225.34 261.02 225 260Z" fill="#141414"/>
<path d="M249 204C248.711 204.536 248.423 205.072 248.125 205.625C246.833 208.353 245.914 211.126 245 214C244.67 214 244.34 214 244 214C243.707 207.945 243.707 207.945 244 206C247 204 247 204 249 204Z" fill="#131313"/>
</svg>
