<svg width="200" height="200" viewBox="0 0 200 200" fill="none" xmlns="http://www.w3.org/2000/svg">
<circle cx="100" cy="100" r="100" fill="#151515"/>
<path d="M86.284 56C88.2427 56.0213 88.2427 56.0213 90.241 56.043C92.1804 56.0526 92.1804 56.0526 94.159 56.0625C97.8575 56.222 101.396 56.6807 105.053 57.2305C105.129 71.4673 104.895 85.6855 104.553 99.918C104.505 101.999 104.457 104.081 104.409 106.162C104.293 111.185 104.173 116.208 104.053 121.23C113.623 121.23 123.193 121.23 133.053 121.23C135.57 136.327 135.57 136.327 136.053 142.23C135.053 143.23 135.053 143.23 132.845 143.351C131.87 143.349 130.896 143.346 129.891 143.344C128.79 143.344 127.689 143.344 126.555 143.344C125.357 143.339 124.159 143.333 122.925 143.328C121.705 143.327 120.486 143.325 119.23 143.324C115.317 143.318 111.404 143.306 107.491 143.293C104.846 143.288 102.201 143.283 99.5554 143.279C93.0548 143.268 86.5541 143.251 80.0535 143.23C79.9399 122.822 79.9901 102.418 80.3719 82.0128C80.4096 79.9483 80.444 77.8838 80.4751 75.8193C80.52 72.9183 80.5778 70.0179 80.6394 67.1172C80.651 66.245 80.6625 65.3728 80.6744 64.4742C80.8762 56.3858 80.8762 56.3858 86.284 56Z" fill="white"/>
</svg>
