<?xml version="1.0" standalone="no"?>
<!DOCTYPE svg PUBLIC "-//W3C//DTD SVG 20010904//EN"
 "http://www.w3.org/TR/2001/REC-SVG-20010904/DTD/svg10.dtd">
<svg version="1.0" xmlns="http://www.w3.org/2000/svg"
 width="500.000000pt" height="500.000000pt" viewBox="0 0 500.000000 500.000000"
 preserveAspectRatio="xMidYMid meet">

<g transform="translate(0.000000,500.000000) scale(0.100000,-0.100000)"
fill="#000000" stroke="none">
<path d="M1330 3051 c-87 -6 -114 -11 -156 -33 -59 -31 -98 -73 -128 -138 -20
-44 -21 -60 -21 -485 l0 -440 889 0 890 0 33 58 c19 31 37 57 41 57 4 0 22
-27 40 -60 l33 -60 457 3 457 2 5 275 5 275 129 230 c71 127 140 247 153 268
14 22 22 42 18 45 -4 4 -108 7 -233 7 l-226 0 -33 -58 c-19 -31 -38 -55 -43
-52 -5 3 -21 28 -36 56 -17 30 -36 52 -50 55 -12 3 -134 4 -271 2 -280 -4
-313 -11 -369 -82 -16 -20 -32 -36 -36 -36 -4 0 -21 24 -38 54 l-30 53 -68 6
c-87 9 -965 9 -1026 1 l-46 -7 0 -373 0 -374 -100 0 -100 0 -2 377 c-3 327 -5
378 -18 379 -8 0 -62 -2 -120 -5z m90 -431 l0 -380 180 0 180 0 0 -120 0 -120
-300 0 -300 0 0 408 0 408 25 51 c36 72 120 132 188 133 l27 0 0 -380z m1099
303 c-3 -58 -9 -85 -24 -105 -41 -54 -58 -58 -249 -58 l-176 0 0 -75 0 -75
120 0 120 0 0 -120 0 -119 -117 -3 -118 -3 -3 -62 -3 -63 226 0 225 0 0 -120
0 -120 -345 0 -345 0 0 500 0 500 346 0 346 0 -3 -77z m331 -58 c40 -74 76
-135 79 -135 3 0 31 46 61 101 60 110 102 155 152 164 18 3 116 5 216 3 l184
-3 70 -125 c38 -69 73 -129 78 -133 4 -5 40 51 80 123 40 72 78 134 85 136 6
3 61 3 123 2 l111 -3 -132 -235 -132 -235 -5 -260 -5 -260 -122 -3 -123 -3 0
254 0 254 -127 231 c-70 127 -131 228 -134 224 -4 -4 -64 -109 -133 -234
l-126 -227 130 -235 c72 -130 133 -242 136 -251 5 -13 -10 -15 -114 -15 l-120
0 -74 135 c-40 74 -75 135 -79 135 -3 0 -39 -61 -80 -135 l-74 -135 -117 0
c-65 0 -118 3 -118 8 0 4 58 113 130 242 71 129 130 241 130 249 0 8 -58 121
-130 251 -71 130 -130 239 -130 243 0 4 53 7 118 7 l118 0 74 -135z m494 -240
l76 -136 0 -259 c0 -143 -3 -260 -7 -260 -5 0 -75 120 -156 265 l-148 266 47
87 c73 135 95 172 104 172 4 0 42 -61 84 -135z m-774 15 c34 -61 64 -119 67
-129 5 -18 -44 -118 -89 -183 -19 -27 -23 -28 -104 -28 l-84 0 0 180 0 180
-67 1 c-93 1 -168 12 -168 24 0 6 61 13 148 17 117 6 156 11 185 26 20 11 40
20 44 21 3 0 34 -49 68 -109z"/>
</g>
</svg>
