<svg fill="none" height="92" viewBox="0 0 92 92" width="92" xmlns="http://www.w3.org/2000/svg">
    <circle cx="46" cy="46" r="45.78" fill="#b92b27"/>
    <path
      d="m47.4832 59.2793c-1.5948-3.1267-3.4658-6.2848-7.1153-6.2848-.6977 0-1.3945.1151-2.0339.4058l-1.2399-2.4715c1.5109-1.2913 3.9523-2.315 7.0905-2.315 4.8819 0 7.3873 2.3423 9.3763 5.3323 1.1807-2.5527 1.742-5.9999 1.742-10.2729 0-10.6704-3.3502-16.1494-11.1757-16.1494-7.7116 0-11.0435 5.479-11.0435 16.1494 0 10.6142 3.3319 16.0368 11.0435 16.0368 1.2257 0 2.3358-.1342 3.356-.4307zm1.9117 3.7238c-1.7179.4603-3.4887.6958-5.2677.7007-10.2685 0-20.3225-8.1616-20.3225-20.0306 0-11.9816 10.054-20.1449 20.3225-20.1449 10.4407 0 20.3982 8.1045 20.3982 20.1449 0 6.6973-3.1374 12.1398-7.6975 15.6574 1.4735 2.1991 2.9902 3.6593 5.1023 3.6593 2.305 0 3.2346-1.7742 3.3901-3.1656h3.0018c.1755 1.8528-.755 9.5531-9.1443 9.5531-5.0814 0-7.7681-2.9337-9.7829-6.3743z"
      fill="#fff" />
  </svg>
  